<svg xmlns="http://www.w3.org/2000/svg" width="1546" height="1331" viewBox="0 0 1546 1331" version="1.1"><path d="M 993.491 46.642 C 992.597 48.764, 979.108 81.100, 963.517 118.500 C 947.925 155.900, 906.780 254.576, 872.084 337.781 C 837.388 420.985, 809 489.679, 809 490.433 C 809 491.187, 826.592 534.486, 848.093 586.652 C 869.595 638.819, 905.636 726.275, 928.186 781 C 950.736 835.725, 985.786 920.775, 1006.076 970 C 1026.365 1019.225, 1068.087 1120.475, 1098.790 1195 L 1154.614 1330.500 1350.307 1330.753 C 1457.938 1330.891, 1546 1330.782, 1546 1330.508 C 1546 1330.235, 1529.981 1292.547, 1510.402 1246.756 C 1490.823 1200.965, 1436.323 1073.500, 1389.290 963.500 C 1342.257 853.500, 1255.273 650.100, 1195.991 511.500 C 1136.710 372.900, 1067.428 210.905, 1042.032 151.512 C 1016.635 92.118, 995.690 43.357, 995.487 43.154 C 995.284 42.950, 994.386 44.520, 993.491 46.642" stroke="none" fill="#2f3d61" fill-rule="evenodd"/><path d="M 539.230 7.750 C 537.535 12.013, 530.992 28.100, 524.691 43.500 C 518.390 58.900, 495.810 114.250, 474.514 166.500 C 453.218 218.750, 425.315 287.150, 412.508 318.500 C 399.701 349.850, 372.250 417.125, 351.506 468 C 265.925 677.884, 251.361 713.590, 241.990 736.500 C 236.590 749.700, 222.725 783.675, 211.179 812 C 191.149 861.138, 160.217 936.953, 104.286 1074 C 90.257 1108.375, 73.929 1148.425, 68.002 1163 C 62.075 1177.575, 48.679 1210.425, 38.233 1236 C 3.734 1320.466, 0 1329.679, 0 1330.345 C 0 1330.708, 82.208 1330.892, 182.684 1330.753 L 365.367 1330.500 398.166 1250 C 469.130 1075.830, 566.711 836.246, 633.990 671 C 690.351 532.571, 726.695 443.339, 769.011 339.500 C 786.718 296.050, 816.863 222.025, 836.002 175 C 855.141 127.975, 878.774 69.925, 888.521 46 C 898.267 22.075, 906.461 1.937, 906.728 1.250 C 907.116 0.253, 870.316 -0, 724.763 -0 L 542.313 0 539.230 7.750" stroke="none" fill="#feaf13" fill-rule="evenodd"/></svg>
