<svg xmlns="http://www.w3.org/2000/svg" width="600" height="600" viewBox="0 0 600 600" version="1.1"><path d="M 295 51.008 C 293.625 51.476, 283.725 54.619, 273 57.993 C 262.275 61.367, 252.375 64.521, 251 65.002 C 249.625 65.482, 240.400 68.408, 230.500 71.504 C 220.600 74.600, 204.625 79.613, 195 82.645 C 185.375 85.677, 168.950 90.851, 158.500 94.143 C 148.050 97.435, 138.375 100.521, 137 101.002 C 135.625 101.482, 126.400 104.408, 116.500 107.503 C 106.600 110.598, 90.400 115.713, 80.500 118.869 L 62.500 124.608 62.247 287.358 L 61.994 450.108 67.247 452.442 C 70.136 453.725, 77.900 457.046, 84.500 459.823 C 91.100 462.599, 106.850 469.228, 119.500 474.555 C 132.150 479.882, 151.050 487.831, 161.500 492.221 C 171.950 496.610, 186.350 502.675, 193.500 505.699 C 200.650 508.722, 208.975 512.226, 212 513.484 C 222.487 517.847, 255.601 531.825, 276 540.499 C 287.275 545.294, 297.625 549.397, 299 549.618 C 300.685 549.888, 339.969 533.797, 419.500 500.259 L 537.500 450.500 537.500 287.546 L 537.500 124.592 528.500 121.709 C 511.416 116.235, 497.475 111.812, 490 109.493 C 485.875 108.214, 478.225 105.809, 473 104.148 C 467.775 102.488, 450.675 97.083, 435 92.136 C 419.325 87.190, 401.325 81.495, 395 79.481 C 388.675 77.467, 380.125 74.773, 376 73.495 C 371.875 72.216, 353.463 66.407, 335.085 60.585 C 316.707 54.763, 300.732 50.036, 299.585 50.079 C 298.438 50.122, 296.375 50.540, 295 51.008 M 488.325 203.817 C 482.729 205.852, 477.900 207.767, 477.594 208.073 C 477.033 208.633, 476.481 212.534, 471.018 254.500 C 469.371 267.150, 466.698 287.625, 465.079 300 C 463.460 312.375, 461.195 329.925, 460.045 339 C 457.593 358.363, 456.985 362.329, 456.548 361.852 C 456.370 361.658, 450.700 330.900, 443.948 293.500 C 437.196 256.100, 431.369 225.146, 430.999 224.713 C 430.629 224.281, 426.093 225.431, 420.918 227.268 C 413.252 229.991, 411.371 231.063, 410.760 233.055 C 410.120 235.142, 387.422 372.557, 385.448 386.296 C 385.069 388.934, 384.628 390.959, 384.469 390.796 C 384.147 390.468, 378.833 355.867, 366.379 273 C 364.354 259.525, 362.569 248.341, 362.411 248.146 C 362.052 247.702, 340.993 254.720, 339.108 255.913 C 337.387 257.002, 337.536 258.308, 342.933 289.500 C 345.217 302.700, 348.210 319.993, 349.583 327.928 C 355.857 364.170, 367.309 431.435, 368.707 440.250 C 369.557 445.613, 370.533 449.986, 370.876 449.969 C 371.219 449.952, 376.649 447.801, 382.942 445.189 L 394.383 440.439 401.100 400.969 C 404.795 379.261, 410.566 345.300, 413.926 325.500 C 417.286 305.700, 420.325 288.150, 420.678 286.500 C 421.184 284.138, 421.806 286.053, 423.603 295.500 C 424.858 302.100, 430.568 332.144, 436.290 362.264 C 442.013 392.385, 446.976 417.309, 447.319 417.652 C 447.943 418.277, 468.797 410.138, 469.504 408.993 C 469.711 408.659, 473.305 384.785, 477.491 355.942 C 485.125 303.337, 487.072 289.965, 495.464 232.500 C 497.954 215.450, 499.993 201.162, 499.995 200.750 C 500.002 199.634, 499.384 199.797, 488.325 203.817 M 152.404 226.827 C 142.730 230.171, 135.851 237.459, 131.933 248.515 C 129.152 256.364, 128.850 273.455, 131.325 283 C 133.576 291.683, 139.737 304.038, 145.787 312.004 C 151.984 320.162, 164.800 332.452, 176.500 341.457 C 197.036 357.263, 205.200 366.063, 208.476 375.927 C 210.557 382.192, 210.611 394.300, 208.580 399.158 C 204.338 409.302, 192.927 410.403, 176.297 402.274 C 161.782 395.179, 151 378.223, 151 362.493 L 151 358.406 139.223 354.203 C 132.746 351.891, 126.831 350, 126.079 350 C 124.302 350, 125.086 361.685, 127.487 371 C 129.484 378.748, 135.448 391.825, 140.343 399.192 C 145.195 406.493, 156.650 418.009, 164.082 423.056 C 171.788 428.289, 184.756 434.344, 192 436.092 C 200.744 438.202, 212.568 437.769, 218.500 435.123 C 231.733 429.220, 237.496 417.578, 237.371 397 C 237.185 366.170, 224.331 345.635, 187.028 316.575 C 165.479 299.787, 159.437 292.772, 156.436 281.055 C 155.133 275.970, 155.028 273.626, 155.887 268.751 C 157.841 257.656, 162.574 253.656, 173 254.286 C 192.343 255.456, 207.771 270.828, 209.764 290.919 L 210.500 298.337 223.813 302.773 C 231.134 305.212, 237.316 307.018, 237.548 306.785 C 238.542 305.791, 235.628 287.884, 233.353 281 C 230.219 271.522, 224.333 260.528, 218.237 252.767 C 201.877 231.942, 171.843 220.107, 152.404 226.827" stroke="none" fill="#9a230a" fill-rule="evenodd"/><path d="M 488.325 203.817 C 482.729 205.852, 477.900 207.767, 477.594 208.073 C 477.033 208.633, 476.481 212.534, 471.018 254.500 C 469.371 267.150, 466.698 287.625, 465.079 300 C 463.460 312.375, 461.195 329.925, 460.045 339 C 457.593 358.363, 456.985 362.329, 456.548 361.852 C 456.370 361.658, 450.700 330.900, 443.948 293.500 C 437.196 256.100, 431.369 225.146, 430.999 224.713 C 430.629 224.281, 426.093 225.431, 420.918 227.268 C 413.252 229.991, 411.371 231.063, 410.760 233.055 C 410.120 235.142, 387.422 372.557, 385.448 386.296 C 385.069 388.934, 384.628 390.959, 384.469 390.796 C 384.147 390.468, 378.833 355.867, 366.379 273 C 364.354 259.525, 362.569 248.341, 362.411 248.146 C 362.052 247.702, 340.993 254.720, 339.108 255.913 C 337.387 257.002, 337.536 258.308, 342.933 289.500 C 345.217 302.700, 348.210 319.993, 349.583 327.928 C 355.857 364.170, 367.309 431.435, 368.707 440.250 C 369.557 445.613, 370.533 449.986, 370.876 449.969 C 371.219 449.952, 376.649 447.801, 382.942 445.189 L 394.383 440.439 401.100 400.969 C 404.795 379.261, 410.566 345.300, 413.926 325.500 C 417.286 305.700, 420.325 288.150, 420.678 286.500 C 421.184 284.138, 421.806 286.053, 423.603 295.500 C 424.858 302.100, 430.568 332.144, 436.290 362.264 C 442.013 392.385, 446.976 417.309, 447.319 417.652 C 447.943 418.277, 468.797 410.138, 469.504 408.993 C 469.711 408.659, 473.305 384.785, 477.491 355.942 C 485.125 303.337, 487.072 289.965, 495.464 232.500 C 497.954 215.450, 499.993 201.162, 499.995 200.750 C 500.002 199.634, 499.384 199.797, 488.325 203.817 M 152.404 226.827 C 142.730 230.171, 135.851 237.459, 131.933 248.515 C 129.152 256.364, 128.850 273.455, 131.325 283 C 133.576 291.683, 139.737 304.038, 145.787 312.004 C 151.984 320.162, 164.800 332.452, 176.500 341.457 C 197.036 357.263, 205.200 366.063, 208.476 375.927 C 210.557 382.192, 210.611 394.300, 208.580 399.158 C 204.338 409.302, 192.927 410.403, 176.297 402.274 C 161.782 395.179, 151 378.223, 151 362.493 L 151 358.406 139.223 354.203 C 132.746 351.891, 126.831 350, 126.079 350 C 124.302 350, 125.086 361.685, 127.487 371 C 129.484 378.748, 135.448 391.825, 140.343 399.192 C 145.195 406.493, 156.650 418.009, 164.082 423.056 C 171.788 428.289, 184.756 434.344, 192 436.092 C 200.744 438.202, 212.568 437.769, 218.500 435.123 C 231.733 429.220, 237.496 417.578, 237.371 397 C 237.185 366.170, 224.331 345.635, 187.028 316.575 C 165.479 299.787, 159.437 292.772, 156.436 281.055 C 155.133 275.970, 155.028 273.626, 155.887 268.751 C 157.841 257.656, 162.574 253.656, 173 254.286 C 192.343 255.456, 207.771 270.828, 209.764 290.919 L 210.500 298.337 223.813 302.773 C 231.134 305.212, 237.316 307.018, 237.548 306.785 C 238.542 305.791, 235.628 287.884, 233.353 281 C 230.219 271.522, 224.333 260.528, 218.237 252.767 C 201.877 231.942, 171.843 220.107, 152.404 226.827" stroke="none" fill="#9ba0b1" fill-rule="evenodd"/></svg>
