<?xml version="1.0" standalone="no"?>
<!DOCTYPE svg PUBLIC "-//W3C//DTD SVG 20010904//EN"
 "http://www.w3.org/TR/2001/REC-SVG-20010904/DTD/svg10.dtd">
<svg version="1.0" xmlns="http://www.w3.org/2000/svg"
 width="300.000000pt" height="300.000000pt" viewBox="0 0 300.000000 300.000000"
 preserveAspectRatio="xMidYMid meet">
<metadata>
Created by potrace 1.10, written by Peter Selinger 2001-2011
</metadata>
<g transform="translate(0.000000,300.000000) scale(0.100000,-0.100000)"
fill="#000000" stroke="none">
<path d="M898 2561 l-588 -186 0 -813 c0 -765 1 -813 18 -819 9 -4 277 -116
595 -249 l577 -243 593 249 592 249 2 813 3 813 -598 188 c-328 103 -599 187
-602 186 -3 -1 -269 -85 -592 -188z m707 120 c50 -16 137 -43 195 -61 58 -18
159 -49 225 -70 402 -129 477 -152 544 -169 40 -10 70 -21 65 -23 -9 -6 -168
-57 -791 -254 -203 -64 -343 -113 -343 -120 0 -8 12 -6 38 7 20 10 111 42 202
70 165 51 204 63 570 179 107 34 220 69 250 79 100 31 90 115 90 -764 0 -606
-3 -775 -12 -783 -7 -6 -53 -27 -103 -47 -49 -20 -103 -43 -120 -50 -129 -58
-867 -364 -882 -367 -17 -3 -18 27 -23 822 l-5 825 -3 -837 -2 -836 -47 23
c-47 23 -306 133 -823 350 -140 59 -261 112 -268 117 -9 8 -12 177 -12 785 0
723 1 775 18 792 9 10 78 36 152 59 74 22 185 56 245 75 61 19 184 58 275 87
91 28 226 71 300 95 74 24 144 44 155 44 12 1 61 -12 110 -28z"/>
<path d="M2427 2010 c-77 -30 -73 -15 -118 -360 -12 -91 -25 -171 -29 -179 -5
-9 -11 4 -18 35 -16 69 -49 249 -58 307 -4 28 -16 60 -29 75 -21 25 -24 25
-68 13 -76 -22 -85 -38 -113 -212 -48 -301 -64 -383 -71 -375 -9 8 -22 78 -47
254 -14 95 -30 182 -36 192 -15 28 -44 33 -97 15 -63 -22 -83 -41 -83 -81 0
-18 24 -174 54 -346 30 -172 57 -329 60 -348 31 -193 43 -241 64 -262 19 -20
22 -20 70 -4 75 25 98 54 112 139 7 40 27 160 46 267 19 107 34 195 34 197 0
2 4 3 9 3 4 0 21 -66 36 -147 46 -248 52 -273 70 -293 23 -26 39 -25 101 4 35
16 54 32 62 52 6 16 22 110 37 209 14 99 43 304 66 455 57 392 56 374 28 394
-28 19 -23 19 -82 -4z m69 -42 c-7 -41 -146 -998 -146 -1007 0 -8 -109 -55
-114 -50 -2 2 -31 155 -66 339 -34 184 -63 336 -64 337 -1 1 -30 -170 -65
-380 -35 -210 -66 -389 -68 -397 -3 -13 -112 -65 -119 -57 -5 5 -164 951 -162
959 3 9 102 48 120 48 4 0 8 -10 8 -22 0 -24 87 -635 97 -678 4 -16 14 27 28
115 12 77 42 260 66 406 l43 267 50 15 c28 9 51 15 52 14 1 -1 27 -146 58
-322 32 -176 60 -333 64 -348 5 -19 24 105 57 362 l49 390 51 20 c67 26 68 26
61 -11z"/>
<path d="M755 1900 c-40 -13 -103 -73 -122 -118 -24 -55 -21 -183 6 -250 37
-92 112 -180 241 -282 72 -57 110 -98 126 -137 40 -93 -14 -140 -105 -93 -53
27 -88 72 -107 138 -21 72 -34 86 -92 103 -76 22 -111 5 -112 -53 0 -38 42
-156 75 -208 96 -153 300 -253 428 -211 45 15 102 78 116 128 27 97 3 237 -58
331 -28 43 -122 141 -177 182 -79 60 -117 97 -140 137 -23 38 -26 50 -18 81
10 40 26 48 80 37 50 -9 99 -63 114 -124 16 -68 45 -96 115 -112 56 -12 58
-12 76 10 23 28 24 49 4 126 -32 120 -133 242 -241 292 -61 28 -159 39 -209
23z m193 -56 c128 -57 216 -180 237 -331 l7 -52 -69 23 -68 23 -7 48 c-9 64
-52 124 -108 153 -94 47 -160 17 -160 -75 0 -66 31 -116 113 -181 142 -113
216 -191 254 -270 34 -67 37 -81 37 -160 1 -110 -19 -156 -85 -190 -36 -19
-54 -22 -99 -18 -118 13 -260 115 -323 233 -26 49 -63 190 -53 200 3 3 33 -4
68 -16 63 -21 63 -21 65 -61 5 -78 60 -152 143 -189 97 -44 150 -14 150 83 0
73 -37 127 -143 210 -110 86 -194 177 -226 246 -37 80 -41 197 -9 259 51 99
149 122 276 65z"/>
</g>
</svg>
